<svg xmlns="http://www.w3.org/2000/svg" xmlns:xlink="http://www.w3.org/1999/xlink" width="250" zoomAndPan="magnify" viewBox="0 0 187.5 112.499997" height="150" preserveAspectRatio="xMidYMid meet" version="1.0"><defs><g/><clipPath id="75d26132c7"><path d="M 0.164062 0 L 186.835938 0 L 186.835938 112.003906 L 0.164062 112.003906 Z M 0.164062 0 " clip-rule="nonzero"/></clipPath><clipPath id="c00cf65aac"><path d="M 51.179688 44.296875 L 72.085938 44.296875 L 72.085938 62 L 51.179688 62 Z M 51.179688 44.296875 " clip-rule="nonzero"/></clipPath><clipPath id="f461055d40"><rect x="0" width="81" y="0" height="19"/></clipPath><clipPath id="aaa13be53e"><path d="M 0.289062 0.257812 L 3 0.257812 L 3 4 L 0.289062 4 Z M 0.289062 0.257812 " clip-rule="nonzero"/></clipPath><clipPath id="ded963f084"><path d="M 2 0.257812 L 6 0.257812 L 6 4 L 2 4 Z M 2 0.257812 " clip-rule="nonzero"/></clipPath><clipPath id="53a1df559f"><path d="M 5 0.257812 L 9 0.257812 L 9 4 L 5 4 Z M 5 0.257812 " clip-rule="nonzero"/></clipPath><clipPath id="6425d38e69"><path d="M 8 0.257812 L 11 0.257812 L 11 4 L 8 4 Z M 8 0.257812 " clip-rule="nonzero"/></clipPath><clipPath id="be3126b2cf"><path d="M 11 0.257812 L 13 0.257812 L 13 4 L 11 4 Z M 11 0.257812 " clip-rule="nonzero"/></clipPath><clipPath id="b97428b9a2"><path d="M 12 0.257812 L 16 0.257812 L 16 4 L 12 4 Z M 12 0.257812 " clip-rule="nonzero"/></clipPath><clipPath id="b091dd952c"><path d="M 15 0.257812 L 19 0.257812 L 19 4 L 15 4 Z M 15 0.257812 " clip-rule="nonzero"/></clipPath><clipPath id="48d5e510e3"><path d="M 18 0.257812 L 21 0.257812 L 21 4 L 18 4 Z M 18 0.257812 " clip-rule="nonzero"/></clipPath><clipPath id="a528bbc902"><path d="M 20 0.257812 L 23 0.257812 L 23 4 L 20 4 Z M 20 0.257812 " clip-rule="nonzero"/></clipPath><clipPath id="e99d4923c6"><path d="M 23 0.257812 L 27 0.257812 L 27 4 L 23 4 Z M 23 0.257812 " clip-rule="nonzero"/></clipPath><clipPath id="97310768bb"><path d="M 26 0.257812 L 30 0.257812 L 30 4 L 26 4 Z M 26 0.257812 " clip-rule="nonzero"/></clipPath><clipPath id="98b58f8d4c"><path d="M 29 0.257812 L 32 0.257812 L 32 4 L 29 4 Z M 29 0.257812 " clip-rule="nonzero"/></clipPath><clipPath id="b5146572e6"><path d="M 32 0.257812 L 34 0.257812 L 34 4 L 32 4 Z M 32 0.257812 " clip-rule="nonzero"/></clipPath><clipPath id="3ed2e0832e"><path d="M 33 0.257812 L 37 0.257812 L 37 4 L 33 4 Z M 33 0.257812 " clip-rule="nonzero"/></clipPath><clipPath id="bb865e13e0"><path d="M 36 0.257812 L 39 0.257812 L 39 4 L 36 4 Z M 36 0.257812 " clip-rule="nonzero"/></clipPath><clipPath id="3cdee0dbf5"><path d="M 38 0.257812 L 41 0.257812 L 41 4 L 38 4 Z M 38 0.257812 " clip-rule="nonzero"/></clipPath><clipPath id="6c503cc777"><path d="M 40 0.257812 L 43 0.257812 L 43 4 L 40 4 Z M 40 0.257812 " clip-rule="nonzero"/></clipPath><clipPath id="edc573a41a"><path d="M 42 0.257812 L 45 0.257812 L 45 4 L 42 4 Z M 42 0.257812 " clip-rule="nonzero"/></clipPath><clipPath id="f15a7867b6"><path d="M 44 0.257812 L 47 0.257812 L 47 4 L 44 4 Z M 44 0.257812 " clip-rule="nonzero"/></clipPath><clipPath id="1b1019b5b4"><path d="M 47 0.257812 L 50 0.257812 L 50 4 L 47 4 Z M 47 0.257812 " clip-rule="nonzero"/></clipPath><clipPath id="a81e55c752"><path d="M 49 0.257812 L 51.421875 0.257812 L 51.421875 4 L 49 4 Z M 49 0.257812 " clip-rule="nonzero"/></clipPath><clipPath id="8ab5ee2665"><rect x="0" width="52" y="0" height="6"/></clipPath></defs><g clip-path="url(#75d26132c7)"><path fill="#ffffff" d="M 0.164062 0 L 186.835938 0 L 186.835938 112.003906 L 0.164062 112.003906 Z M 0.164062 0 " fill-opacity="1" fill-rule="nonzero"/><path fill="#ffffff" d="M 0.164062 0 L 186.835938 0 L 186.835938 112.003906 L 0.164062 112.003906 Z M 0.164062 0 " fill-opacity="1" fill-rule="nonzero"/></g><g clip-path="url(#c00cf65aac)"><path fill="#145d99" d="M 65.320312 53.09375 C 68.765625 53.09375 69.007812 49.582031 67.539062 48.398438 C 66.976562 47.949219 66.214844 47.726562 65.242188 47.726562 L 63.023438 47.726562 C 62.605469 47.726562 62.261719 48.070312 62.261719 48.488281 L 62.261719 52.332031 C 62.261719 52.75 62.605469 53.09375 63.023438 53.09375 Z M 52.304688 57.847656 C 52.636719 57.847656 53.210938 57.761719 53.210938 58.28125 C 53.210938 58.789062 52.625 58.710938 52.304688 58.710938 C 51.742188 58.710938 51.742188 57.847656 52.304688 57.847656 Z M 57.871094 61.273438 L 59.910156 61.273438 C 60.476562 61.273438 60.476562 60.421875 59.910156 60.421875 L 55.992188 60.421875 C 55.429688 60.421875 55.429688 59.570312 55.992188 59.570312 C 57.007812 59.570312 58.011719 59.570312 59.027344 59.570312 C 59.589844 59.570312 59.589844 58.722656 59.027344 58.722656 L 57.175781 58.722656 C 56.609375 58.722656 56.609375 57.871094 57.175781 57.871094 C 57.660156 57.871094 58.15625 57.871094 58.640625 57.871094 C 59.207031 57.871094 59.207031 57.023438 58.640625 57.023438 L 56.058594 57.023438 C 55.496094 57.023438 55.496094 56.171875 56.058594 56.171875 L 58.597656 56.171875 C 59.148438 56.171875 59.195312 55.320312 58.566406 55.320312 L 57.242188 55.320312 C 56.675781 55.320312 56.675781 54.472656 57.242188 54.472656 C 58.664062 54.472656 60.089844 54.472656 61.511719 54.472656 C 62.074219 54.472656 62.074219 53.621094 61.511719 53.621094 L 55.828125 53.621094 C 55.265625 53.621094 55.265625 52.773438 55.828125 52.773438 L 57.660156 52.773438 C 58.222656 52.773438 58.222656 51.921875 57.660156 51.921875 L 55 51.921875 C 54.4375 51.921875 54.4375 51.070312 55 51.070312 C 56.566406 51.070312 58.144531 51.070312 59.714844 51.070312 C 60.277344 51.070312 60.277344 50.222656 59.714844 50.222656 L 57.109375 50.222656 C 56.542969 50.222656 56.542969 49.371094 57.109375 49.371094 L 59.140625 49.371094 C 59.703125 49.371094 59.703125 48.523438 59.140625 48.523438 L 56.632812 48.53125 C 56.070312 48.53125 56.070312 47.683594 56.632812 47.683594 L 60.761719 47.695312 C 61.324219 47.695312 61.324219 46.84375 60.761719 46.84375 L 56.554688 46.855469 C 55.992188 46.855469 55.992188 46.003906 56.554688 46.003906 L 58.609375 46.003906 C 59.171875 46.003906 59.148438 45.199219 58.6875 45.15625 C 58.144531 45.15625 57.605469 45.15625 57.050781 45.15625 C 56.488281 45.15625 56.488281 44.304688 57.050781 44.304688 C 59.890625 44.304688 62.726562 44.304688 65.574219 44.304688 C 69.4375 44.304688 72.296875 46.457031 72.296875 50.429688 C 72.296875 54.59375 69.050781 56.601562 65.1875 56.601562 L 63.011719 56.601562 C 62.59375 56.601562 62.25 56.945312 62.25 57.363281 L 62.25 61.105469 C 62.25 61.527344 61.910156 61.867188 61.488281 61.867188 L 57.460938 61.867188 C 57.394531 61.535156 57.59375 61.273438 57.871094 61.273438 Z M 52.714844 51.027344 L 53.71875 51.027344 C 54.28125 51.027344 54.28125 51.878906 53.71875 51.878906 L 52.714844 51.878906 C 52.152344 51.878906 52.152344 51.027344 52.714844 51.027344 Z M 54.503906 45.925781 L 55.109375 45.925781 C 55.671875 45.925781 55.671875 46.777344 55.109375 46.777344 L 54.503906 46.777344 C 53.941406 46.777344 53.941406 45.925781 54.503906 45.925781 Z M 53.917969 59.558594 C 54.25 59.558594 54.824219 59.472656 54.824219 59.992188 C 54.824219 60.5 54.238281 60.421875 53.917969 60.421875 C 53.355469 60.410156 53.355469 59.558594 53.917969 59.558594 Z M 54.890625 54.4375 L 55.9375 54.4375 C 56.5 54.4375 56.5 55.289062 55.9375 55.289062 L 54.890625 55.289062 C 54.335938 55.289062 54.335938 54.4375 54.890625 54.4375 Z M 51.742188 47.617188 L 55.285156 47.617188 C 55.847656 47.617188 55.847656 48.464844 55.285156 48.464844 L 51.742188 48.464844 C 51.179688 48.464844 51.179688 47.617188 51.742188 47.617188 Z M 53.984375 57.847656 L 55.792969 57.847656 C 56.355469 57.847656 56.355469 58.699219 55.792969 58.699219 L 53.984375 58.699219 C 53.421875 58.710938 53.421875 57.847656 53.984375 57.847656 Z M 54.535156 49.316406 L 55.585938 49.316406 C 56.148438 49.316406 56.148438 50.167969 55.585938 50.167969 L 54.535156 50.167969 C 53.972656 50.167969 53.972656 49.316406 54.535156 49.316406 Z M 54.535156 49.316406 " fill-opacity="1" fill-rule="evenodd"/></g><g transform="matrix(1, 0, 0, 1, 75, 43)"><g clip-path="url(#f461055d40)"><g fill="#ff3131" fill-opacity="1"><g transform="translate(0.555018, 14.205137)"><g><path d="M 3.6875 -10.421875 C 4.550781 -10.421875 5.285156 -10.273438 5.890625 -9.984375 C 6.503906 -9.691406 6.96875 -9.304688 7.28125 -8.828125 C 7.59375 -8.347656 7.75 -7.816406 7.75 -7.234375 C 7.75 -6.554688 7.585938 -5.96875 7.265625 -5.46875 C 6.953125 -4.976562 6.507812 -4.597656 5.9375 -4.328125 C 5.363281 -4.066406 4.695312 -3.9375 3.9375 -3.9375 C 3.75 -3.9375 3.566406 -3.941406 3.390625 -3.953125 L 3.390625 -2.984375 C 3.390625 -2.347656 3.425781 -1.804688 3.5 -1.359375 C 3.570312 -0.910156 3.691406 -0.457031 3.859375 0 L 0.6875 0 C 0.851562 -0.457031 0.972656 -0.910156 1.046875 -1.359375 C 1.117188 -1.804688 1.15625 -2.347656 1.15625 -2.984375 L 1.15625 -7.421875 C 1.15625 -8.054688 1.117188 -8.597656 1.046875 -9.046875 C 0.972656 -9.503906 0.851562 -9.960938 0.6875 -10.421875 Z M 3.390625 -5.015625 C 4.023438 -5.085938 4.535156 -5.3125 4.921875 -5.6875 C 5.304688 -6.0625 5.5 -6.515625 5.5 -7.046875 C 5.5 -7.597656 5.3125 -8.054688 4.9375 -8.421875 C 4.570312 -8.796875 4.070312 -9.003906 3.4375 -9.046875 C 3.40625 -8.765625 3.390625 -8.328125 3.390625 -7.734375 Z M 3.390625 -5.015625 "/></g></g></g><g fill="#ff3131" fill-opacity="1"><g transform="translate(8.641482, 14.205137)"><g><path d="M 6.203125 -4.59375 C 6.597656 -3.84375 7.015625 -3.128906 7.453125 -2.453125 C 7.898438 -1.785156 8.46875 -0.984375 9.15625 -0.046875 L 9.15625 0 L 7.140625 0 C 6.953125 -0.0703125 6.734375 -0.210938 6.484375 -0.421875 C 6.242188 -0.640625 6 -0.914062 5.75 -1.25 C 5.101562 -2.101562 4.316406 -3.273438 3.390625 -4.765625 L 3.390625 -2.984375 C 3.390625 -2.347656 3.425781 -1.804688 3.5 -1.359375 C 3.570312 -0.910156 3.691406 -0.457031 3.859375 0 L 0.6875 0 C 0.851562 -0.457031 0.972656 -0.910156 1.046875 -1.359375 C 1.117188 -1.804688 1.15625 -2.347656 1.15625 -2.984375 L 1.15625 -7.421875 C 1.15625 -8.054688 1.117188 -8.597656 1.046875 -9.046875 C 0.972656 -9.503906 0.851562 -9.960938 0.6875 -10.421875 L 3.640625 -10.421875 C 4.554688 -10.421875 5.332031 -10.28125 5.96875 -10 C 6.601562 -9.726562 7.082031 -9.359375 7.40625 -8.890625 C 7.726562 -8.421875 7.890625 -7.898438 7.890625 -7.328125 C 7.890625 -6.160156 7.328125 -5.25 6.203125 -4.59375 Z M 3.390625 -5 C 4.117188 -5.1875 4.671875 -5.46875 5.046875 -5.84375 C 5.429688 -6.21875 5.625 -6.628906 5.625 -7.078125 C 5.625 -7.671875 5.410156 -8.144531 4.984375 -8.5 C 4.554688 -8.863281 4.023438 -9.046875 3.390625 -9.046875 Z M 3.390625 -5 "/></g></g></g><g fill="#ff3131" fill-opacity="1"><g transform="translate(17.363638, 14.205137)"><g><path d="M 6.078125 -10.546875 C 7.109375 -10.546875 8.054688 -10.328125 8.921875 -9.890625 C 9.785156 -9.460938 10.472656 -8.851562 10.984375 -8.0625 C 11.492188 -7.28125 11.75 -6.382812 11.75 -5.375 C 11.75 -4.320312 11.492188 -3.375 10.984375 -2.53125 C 10.484375 -1.695312 9.796875 -1.046875 8.921875 -0.578125 C 8.054688 -0.109375 7.09375 0.125 6.03125 0.125 C 4.914062 0.125 3.929688 -0.113281 3.078125 -0.59375 C 2.234375 -1.082031 1.582031 -1.726562 1.125 -2.53125 C 0.664062 -3.34375 0.4375 -4.203125 0.4375 -5.109375 C 0.4375 -6.097656 0.6875 -7.003906 1.1875 -7.828125 C 1.6875 -8.660156 2.363281 -9.320312 3.21875 -9.8125 C 4.082031 -10.300781 5.035156 -10.546875 6.078125 -10.546875 Z M 5.6875 -8.78125 C 5.1875 -8.78125 4.722656 -8.65625 4.296875 -8.40625 C 3.867188 -8.15625 3.523438 -7.796875 3.265625 -7.328125 C 3.015625 -6.867188 2.890625 -6.332031 2.890625 -5.71875 C 2.890625 -5.007812 3.039062 -4.335938 3.34375 -3.703125 C 3.644531 -3.078125 4.066406 -2.570312 4.609375 -2.1875 C 5.160156 -1.8125 5.789062 -1.625 6.5 -1.625 C 7.050781 -1.625 7.539062 -1.765625 7.96875 -2.046875 C 8.394531 -2.328125 8.726562 -2.707031 8.96875 -3.1875 C 9.207031 -3.664062 9.328125 -4.1875 9.328125 -4.75 C 9.328125 -5.46875 9.164062 -6.132812 8.84375 -6.75 C 8.519531 -7.375 8.078125 -7.867188 7.515625 -8.234375 C 6.953125 -8.597656 6.34375 -8.78125 5.6875 -8.78125 Z M 5.6875 -8.78125 "/></g></g></g><g fill="#ff3131" fill-opacity="1"><g transform="translate(29.544191, 14.205137)"><g><path d="M 3.078125 0.125 C 2.191406 0.125 1.40625 -0.0078125 0.71875 -0.28125 L 0.71875 -3.140625 L 0.78125 -3.140625 C 1.257812 -2.546875 1.664062 -2.132812 2 -1.90625 C 2.34375 -1.675781 2.710938 -1.5625 3.109375 -1.5625 C 3.429688 -1.5625 3.707031 -1.660156 3.9375 -1.859375 C 4.164062 -2.066406 4.28125 -2.320312 4.28125 -2.625 C 4.28125 -2.820312 4.234375 -3 4.140625 -3.15625 C 4.046875 -3.3125 3.882812 -3.476562 3.65625 -3.65625 C 3.425781 -3.84375 3.078125 -4.078125 2.609375 -4.359375 C 1.890625 -4.804688 1.382812 -5.269531 1.09375 -5.75 C 0.800781 -6.226562 0.65625 -6.789062 0.65625 -7.4375 C 0.65625 -7.988281 0.789062 -8.5 1.0625 -8.96875 C 1.332031 -9.445312 1.71875 -9.828125 2.21875 -10.109375 C 2.71875 -10.398438 3.304688 -10.546875 3.984375 -10.546875 C 4.734375 -10.546875 5.441406 -10.390625 6.109375 -10.078125 L 6.109375 -7.890625 L 6.0625 -7.875 C 5.71875 -8.195312 5.390625 -8.425781 5.078125 -8.5625 C 4.773438 -8.695312 4.453125 -8.765625 4.109375 -8.765625 C 3.734375 -8.765625 3.441406 -8.671875 3.234375 -8.484375 C 3.035156 -8.296875 2.9375 -8.054688 2.9375 -7.765625 C 2.9375 -7.460938 3.050781 -7.164062 3.28125 -6.875 C 3.507812 -6.59375 3.914062 -6.273438 4.5 -5.921875 C 5.03125 -5.597656 5.445312 -5.304688 5.75 -5.046875 C 6.050781 -4.785156 6.273438 -4.492188 6.421875 -4.171875 C 6.578125 -3.859375 6.65625 -3.476562 6.65625 -3.03125 C 6.65625 -2.375 6.492188 -1.804688 6.171875 -1.328125 C 5.859375 -0.859375 5.425781 -0.5 4.875 -0.25 C 4.332031 0 3.734375 0.125 3.078125 0.125 Z M 3.078125 0.125 "/></g></g></g><g fill="#ff3131" fill-opacity="1"><g transform="translate(36.740633, 14.205137)"><g><path d="M 3.6875 -10.421875 C 4.550781 -10.421875 5.285156 -10.273438 5.890625 -9.984375 C 6.503906 -9.691406 6.96875 -9.304688 7.28125 -8.828125 C 7.59375 -8.347656 7.75 -7.816406 7.75 -7.234375 C 7.75 -6.554688 7.585938 -5.96875 7.265625 -5.46875 C 6.953125 -4.976562 6.507812 -4.597656 5.9375 -4.328125 C 5.363281 -4.066406 4.695312 -3.9375 3.9375 -3.9375 C 3.75 -3.9375 3.566406 -3.941406 3.390625 -3.953125 L 3.390625 -2.984375 C 3.390625 -2.347656 3.425781 -1.804688 3.5 -1.359375 C 3.570312 -0.910156 3.691406 -0.457031 3.859375 0 L 0.6875 0 C 0.851562 -0.457031 0.972656 -0.910156 1.046875 -1.359375 C 1.117188 -1.804688 1.15625 -2.347656 1.15625 -2.984375 L 1.15625 -7.421875 C 1.15625 -8.054688 1.117188 -8.597656 1.046875 -9.046875 C 0.972656 -9.503906 0.851562 -9.960938 0.6875 -10.421875 Z M 3.390625 -5.015625 C 4.023438 -5.085938 4.535156 -5.3125 4.921875 -5.6875 C 5.304688 -6.0625 5.5 -6.515625 5.5 -7.046875 C 5.5 -7.597656 5.3125 -8.054688 4.9375 -8.421875 C 4.570312 -8.796875 4.070312 -9.003906 3.4375 -9.046875 C 3.40625 -8.765625 3.390625 -8.328125 3.390625 -7.734375 Z M 3.390625 -5.015625 "/></g></g></g><g fill="#ff3131" fill-opacity="1"><g transform="translate(44.827097, 14.205137)"><g><path d="M 0.6875 0 C 0.851562 -0.457031 0.972656 -0.910156 1.046875 -1.359375 C 1.117188 -1.804688 1.15625 -2.347656 1.15625 -2.984375 L 1.15625 -7.421875 C 1.15625 -8.054688 1.117188 -8.597656 1.046875 -9.046875 C 0.972656 -9.503906 0.851562 -9.960938 0.6875 -10.421875 L 7 -10.421875 L 5.953125 -8.109375 C 5.285156 -8.566406 4.429688 -8.816406 3.390625 -8.859375 L 3.390625 -6.125 L 6.671875 -6.125 L 5.4375 -4.046875 C 4.882812 -4.328125 4.203125 -4.476562 3.390625 -4.5 L 3.390625 -1.671875 C 4.210938 -1.671875 4.945312 -1.734375 5.59375 -1.859375 C 6.25 -1.984375 6.882812 -2.191406 7.5 -2.484375 L 7.53125 -2.453125 L 6.53125 0 Z M 0.6875 0 "/></g></g></g><g fill="#ff3131" fill-opacity="1"><g transform="translate(52.379548, 14.205137)"><g><path d="M 0.6875 0 C 0.851562 -0.457031 0.972656 -0.910156 1.046875 -1.359375 C 1.117188 -1.804688 1.15625 -2.347656 1.15625 -2.984375 L 1.15625 -7.421875 C 1.15625 -8.054688 1.117188 -8.597656 1.046875 -9.046875 C 0.972656 -9.503906 0.851562 -9.960938 0.6875 -10.421875 L 7 -10.421875 L 5.953125 -8.109375 C 5.285156 -8.566406 4.429688 -8.816406 3.390625 -8.859375 L 3.390625 -6.125 L 6.671875 -6.125 L 5.4375 -4.046875 C 4.882812 -4.328125 4.203125 -4.476562 3.390625 -4.5 L 3.390625 -1.671875 C 4.210938 -1.671875 4.945312 -1.734375 5.59375 -1.859375 C 6.25 -1.984375 6.882812 -2.191406 7.5 -2.484375 L 7.53125 -2.453125 L 6.53125 0 Z M 0.6875 0 "/></g></g></g><g fill="#ff3131" fill-opacity="1"><g transform="translate(59.931999, 14.205137)"><g><path d="M 6.203125 -4.59375 C 6.597656 -3.84375 7.015625 -3.128906 7.453125 -2.453125 C 7.898438 -1.785156 8.46875 -0.984375 9.15625 -0.046875 L 9.15625 0 L 7.140625 0 C 6.953125 -0.0703125 6.734375 -0.210938 6.484375 -0.421875 C 6.242188 -0.640625 6 -0.914062 5.75 -1.25 C 5.101562 -2.101562 4.316406 -3.273438 3.390625 -4.765625 L 3.390625 -2.984375 C 3.390625 -2.347656 3.425781 -1.804688 3.5 -1.359375 C 3.570312 -0.910156 3.691406 -0.457031 3.859375 0 L 0.6875 0 C 0.851562 -0.457031 0.972656 -0.910156 1.046875 -1.359375 C 1.117188 -1.804688 1.15625 -2.347656 1.15625 -2.984375 L 1.15625 -7.421875 C 1.15625 -8.054688 1.117188 -8.597656 1.046875 -9.046875 C 0.972656 -9.503906 0.851562 -9.960938 0.6875 -10.421875 L 3.640625 -10.421875 C 4.554688 -10.421875 5.332031 -10.28125 5.96875 -10 C 6.601562 -9.726562 7.082031 -9.359375 7.40625 -8.890625 C 7.726562 -8.421875 7.890625 -7.898438 7.890625 -7.328125 C 7.890625 -6.160156 7.328125 -5.25 6.203125 -4.59375 Z M 3.390625 -5 C 4.117188 -5.1875 4.671875 -5.46875 5.046875 -5.84375 C 5.429688 -6.21875 5.625 -6.628906 5.625 -7.078125 C 5.625 -7.671875 5.410156 -8.144531 4.984375 -8.5 C 4.554688 -8.863281 4.023438 -9.046875 3.390625 -9.046875 Z M 3.390625 -5 "/></g></g></g><g fill="#ff3131" fill-opacity="1"><g transform="translate(68.654155, 14.205137)"><g><path d="M 9.625 -2.40625 C 9.851562 -1.875 10.066406 -1.429688 10.265625 -1.078125 C 10.472656 -0.734375 10.722656 -0.382812 11.015625 -0.03125 L 11.015625 0 L 7.78125 0 C 7.8125 -0.09375 7.828125 -0.207031 7.828125 -0.34375 C 7.828125 -0.5625 7.785156 -0.800781 7.703125 -1.0625 C 7.628906 -1.332031 7.503906 -1.695312 7.328125 -2.15625 L 7.3125 -2.203125 L 3.234375 -2.203125 L 3.1875 -2.125 C 3.007812 -1.695312 2.878906 -1.347656 2.796875 -1.078125 C 2.722656 -0.804688 2.6875 -0.5625 2.6875 -0.34375 C 2.6875 -0.226562 2.691406 -0.113281 2.703125 0 L -0.46875 0 L -0.46875 -0.03125 C -0.21875 -0.332031 0.015625 -0.664062 0.234375 -1.03125 C 0.453125 -1.394531 0.695312 -1.863281 0.96875 -2.4375 L 3.25 -7.390625 C 3.820312 -8.609375 4.207031 -9.617188 4.40625 -10.421875 L 6.421875 -10.421875 C 6.609375 -9.648438 6.96875 -8.640625 7.5 -7.390625 Z M 4 -4 L 6.59375 -4 L 5.375 -7.125 Z M 4 -4 "/></g></g></g></g></g><g transform="matrix(1, 0, 0, 1, 89, 59)"><g clip-path="url(#8ab5ee2665)"><g clip-path="url(#aaa13be53e)"><g fill="#ff3131" fill-opacity="1"><g transform="translate(0.733052, 3.723943)"><g><path d="M 2.0625 -2.75 L 2.0625 -2.734375 C 1.976562 -2.648438 1.890625 -2.519531 1.796875 -2.34375 L 1.15625 -1.21875 L 1.15625 -0.796875 C 1.15625 -0.628906 1.160156 -0.484375 1.171875 -0.359375 C 1.179688 -0.242188 1.203125 -0.125 1.234375 0 L 0.796875 0 C 0.828125 -0.125 0.847656 -0.242188 0.859375 -0.359375 C 0.867188 -0.484375 0.875 -0.628906 0.875 -0.796875 L 0.875 -1.203125 L 0.234375 -2.3125 C 0.160156 -2.425781 0.101562 -2.515625 0.0625 -2.578125 C 0.0195312 -2.640625 -0.0195312 -2.691406 -0.0625 -2.734375 L -0.0625 -2.75 L 0.40625 -2.75 C 0.40625 -2.738281 0.40625 -2.71875 0.40625 -2.6875 C 0.40625 -2.644531 0.414062 -2.597656 0.4375 -2.546875 C 0.457031 -2.492188 0.488281 -2.429688 0.53125 -2.359375 L 1.015625 -1.484375 L 1.515625 -2.375 C 1.554688 -2.4375 1.582031 -2.492188 1.59375 -2.546875 C 1.613281 -2.597656 1.625 -2.648438 1.625 -2.703125 C 1.625 -2.710938 1.625 -2.726562 1.625 -2.75 Z M 2.0625 -2.75 "/></g></g></g></g><g clip-path="url(#ded963f084)"><g fill="#ff3131" fill-opacity="1"><g transform="translate(2.621192, 3.723943)"><g><path d="M 1.5625 -2.78125 C 1.8125 -2.78125 2.039062 -2.722656 2.25 -2.609375 C 2.46875 -2.492188 2.640625 -2.328125 2.765625 -2.109375 C 2.890625 -1.898438 2.953125 -1.65625 2.953125 -1.375 C 2.953125 -1.101562 2.890625 -0.859375 2.765625 -0.640625 C 2.640625 -0.429688 2.46875 -0.265625 2.25 -0.140625 C 2.039062 -0.0234375 1.804688 0.03125 1.546875 0.03125 C 1.265625 0.03125 1.019531 -0.03125 0.8125 -0.15625 C 0.613281 -0.289062 0.457031 -0.46875 0.34375 -0.6875 C 0.226562 -0.90625 0.171875 -1.140625 0.171875 -1.390625 C 0.171875 -1.640625 0.226562 -1.867188 0.34375 -2.078125 C 0.46875 -2.296875 0.632812 -2.46875 0.84375 -2.59375 C 1.0625 -2.71875 1.300781 -2.78125 1.5625 -2.78125 Z M 1.484375 -2.546875 C 1.304688 -2.546875 1.140625 -2.5 0.984375 -2.40625 C 0.835938 -2.3125 0.71875 -2.179688 0.625 -2.015625 C 0.53125 -1.847656 0.484375 -1.65625 0.484375 -1.4375 C 0.484375 -1.21875 0.53125 -1.015625 0.625 -0.828125 C 0.71875 -0.640625 0.847656 -0.488281 1.015625 -0.375 C 1.179688 -0.257812 1.375 -0.203125 1.59375 -0.203125 C 1.789062 -0.203125 1.96875 -0.25 2.125 -0.34375 C 2.28125 -0.445312 2.398438 -0.582031 2.484375 -0.75 C 2.578125 -0.925781 2.625 -1.113281 2.625 -1.3125 C 2.625 -1.53125 2.570312 -1.734375 2.46875 -1.921875 C 2.375 -2.109375 2.238281 -2.257812 2.0625 -2.375 C 1.882812 -2.488281 1.691406 -2.546875 1.484375 -2.546875 Z M 1.484375 -2.546875 "/></g></g></g></g><g clip-path="url(#53a1df559f)"><g fill="#ff3131" fill-opacity="1"><g transform="translate(5.738975, 3.723943)"><g><path d="M 1.15625 0.03125 C 0.882812 0.03125 0.675781 -0.0507812 0.53125 -0.21875 C 0.394531 -0.394531 0.328125 -0.648438 0.328125 -0.984375 L 0.328125 -1.96875 C 0.328125 -2.125 0.320312 -2.257812 0.3125 -2.375 C 0.300781 -2.5 0.28125 -2.625 0.25 -2.75 L 0.703125 -2.75 C 0.660156 -2.625 0.632812 -2.5 0.625 -2.375 C 0.613281 -2.257812 0.609375 -2.125 0.609375 -1.96875 L 0.609375 -0.984375 C 0.609375 -0.734375 0.664062 -0.546875 0.78125 -0.421875 C 0.894531 -0.296875 1.050781 -0.234375 1.25 -0.234375 C 1.363281 -0.234375 1.472656 -0.257812 1.578125 -0.3125 C 1.691406 -0.375 1.78125 -0.457031 1.84375 -0.5625 C 1.90625 -0.664062 1.9375 -0.785156 1.9375 -0.921875 L 1.9375 -1.96875 C 1.9375 -2.125 1.929688 -2.257812 1.921875 -2.375 C 1.910156 -2.5 1.890625 -2.625 1.859375 -2.75 L 2.3125 -2.75 C 2.28125 -2.625 2.253906 -2.5 2.234375 -2.375 C 2.222656 -2.257812 2.21875 -2.125 2.21875 -1.96875 L 2.21875 -0.796875 C 2.21875 -0.628906 2.222656 -0.484375 2.234375 -0.359375 C 2.253906 -0.242188 2.28125 -0.125 2.3125 0 L 1.921875 0 C 1.929688 -0.0625 1.9375 -0.15625 1.9375 -0.28125 C 1.65625 -0.0703125 1.394531 0.03125 1.15625 0.03125 Z M 1.15625 0.03125 "/></g></g></g></g><g clip-path="url(#6425d38e69)"><g fill="#ff3131" fill-opacity="1"><g transform="translate(8.31585, 3.723943)"><g><path d="M 1.078125 -1.21875 C 1.210938 -1.03125 1.351562 -0.847656 1.5 -0.671875 C 1.644531 -0.492188 1.832031 -0.273438 2.0625 -0.015625 L 2.0625 0 L 1.84375 0 C 1.75 -0.0390625 1.613281 -0.148438 1.4375 -0.328125 C 1.1875 -0.585938 0.921875 -0.898438 0.640625 -1.265625 L 0.640625 -0.796875 C 0.640625 -0.628906 0.644531 -0.484375 0.65625 -0.359375 C 0.664062 -0.242188 0.6875 -0.125 0.71875 0 L 0.265625 0 C 0.296875 -0.125 0.316406 -0.242188 0.328125 -0.359375 C 0.347656 -0.484375 0.359375 -0.628906 0.359375 -0.796875 L 0.359375 -1.96875 C 0.359375 -2.125 0.347656 -2.257812 0.328125 -2.375 C 0.316406 -2.5 0.296875 -2.625 0.265625 -2.75 L 0.703125 -2.75 C 0.921875 -2.75 1.109375 -2.710938 1.265625 -2.640625 C 1.421875 -2.578125 1.535156 -2.488281 1.609375 -2.375 C 1.691406 -2.257812 1.734375 -2.128906 1.734375 -1.984375 C 1.734375 -1.648438 1.515625 -1.394531 1.078125 -1.21875 Z M 0.640625 -1.296875 C 0.898438 -1.347656 1.09375 -1.429688 1.21875 -1.546875 C 1.351562 -1.660156 1.421875 -1.800781 1.421875 -1.96875 C 1.421875 -2.082031 1.382812 -2.179688 1.3125 -2.265625 C 1.25 -2.359375 1.15625 -2.425781 1.03125 -2.46875 C 0.914062 -2.519531 0.785156 -2.546875 0.640625 -2.546875 Z M 0.640625 -1.296875 "/></g></g></g></g><g fill="#ff3131" fill-opacity="1"><g transform="translate(10.33166, 3.723943)"><g/></g></g><g clip-path="url(#be3126b2cf)"><g fill="#ff3131" fill-opacity="1"><g transform="translate(11.111108, 3.723943)"><g><path d="M 1.203125 -1.46875 C 1.398438 -1.363281 1.546875 -1.253906 1.640625 -1.140625 C 1.734375 -1.023438 1.78125 -0.890625 1.78125 -0.734375 C 1.78125 -0.585938 1.734375 -0.457031 1.640625 -0.34375 C 1.554688 -0.238281 1.4375 -0.15625 1.28125 -0.09375 C 1.132812 -0.03125 0.972656 0 0.796875 0 L 0.265625 0 C 0.296875 -0.125 0.316406 -0.242188 0.328125 -0.359375 C 0.347656 -0.484375 0.359375 -0.628906 0.359375 -0.796875 L 0.359375 -1.96875 C 0.359375 -2.125 0.347656 -2.257812 0.328125 -2.375 C 0.316406 -2.5 0.296875 -2.625 0.265625 -2.75 L 0.796875 -2.75 C 0.960938 -2.75 1.109375 -2.71875 1.234375 -2.65625 C 1.367188 -2.601562 1.46875 -2.523438 1.53125 -2.421875 C 1.601562 -2.328125 1.640625 -2.21875 1.640625 -2.09375 C 1.640625 -1.96875 1.597656 -1.851562 1.515625 -1.75 C 1.441406 -1.644531 1.335938 -1.550781 1.203125 -1.46875 Z M 0.640625 -1.484375 C 0.785156 -1.503906 0.910156 -1.546875 1.015625 -1.609375 C 1.117188 -1.671875 1.195312 -1.738281 1.25 -1.8125 C 1.3125 -1.894531 1.34375 -1.976562 1.34375 -2.0625 C 1.34375 -2.21875 1.28125 -2.335938 1.15625 -2.421875 C 1.03125 -2.515625 0.859375 -2.5625 0.640625 -2.5625 Z M 0.640625 -0.1875 C 0.898438 -0.1875 1.101562 -0.234375 1.25 -0.328125 C 1.394531 -0.429688 1.46875 -0.566406 1.46875 -0.734375 C 1.46875 -0.835938 1.429688 -0.9375 1.359375 -1.03125 C 1.285156 -1.132812 1.1875 -1.21875 1.0625 -1.28125 C 0.9375 -1.351562 0.796875 -1.398438 0.640625 -1.421875 Z M 0.640625 -0.1875 "/></g></g></g></g><g clip-path="url(#b97428b9a2)"><g fill="#ff3131" fill-opacity="1"><g transform="translate(12.985808, 3.723943)"><g><path d="M 2.4375 -0.640625 C 2.5 -0.503906 2.554688 -0.390625 2.609375 -0.296875 C 2.660156 -0.203125 2.722656 -0.109375 2.796875 -0.015625 L 2.796875 0 L 2.265625 0 C 2.273438 -0.0195312 2.28125 -0.0507812 2.28125 -0.09375 C 2.28125 -0.15625 2.269531 -0.222656 2.25 -0.296875 C 2.226562 -0.367188 2.191406 -0.460938 2.140625 -0.578125 L 1.953125 -1 L 0.796875 -1 L 0.578125 -0.5625 C 0.484375 -0.363281 0.4375 -0.207031 0.4375 -0.09375 C 0.4375 -0.0625 0.4375 -0.03125 0.4375 0 L -0.0625 0 L -0.0625 -0.015625 C 0.0625 -0.179688 0.1875 -0.390625 0.3125 -0.640625 L 1.40625 -2.8125 L 1.421875 -2.8125 Z M 0.90625 -1.265625 L 1.84375 -1.265625 L 1.390625 -2.265625 Z M 0.90625 -1.265625 "/></g></g></g></g><g clip-path="url(#b091dd952c)"><g fill="#ff3131" fill-opacity="1"><g transform="translate(15.646672, 3.723943)"><g><path d="M 1.515625 0.03125 C 1.253906 0.03125 1.019531 -0.0234375 0.8125 -0.140625 C 0.601562 -0.265625 0.441406 -0.425781 0.328125 -0.625 C 0.222656 -0.832031 0.171875 -1.066406 0.171875 -1.328125 C 0.171875 -1.617188 0.238281 -1.875 0.375 -2.09375 C 0.507812 -2.3125 0.691406 -2.476562 0.921875 -2.59375 C 1.160156 -2.71875 1.421875 -2.78125 1.703125 -2.78125 C 1.828125 -2.78125 1.9375 -2.769531 2.03125 -2.75 C 2.132812 -2.738281 2.238281 -2.71875 2.34375 -2.6875 L 2.34375 -2.359375 C 2.25 -2.421875 2.140625 -2.460938 2.015625 -2.484375 C 1.890625 -2.515625 1.757812 -2.53125 1.625 -2.53125 C 1.414062 -2.53125 1.222656 -2.476562 1.046875 -2.375 C 0.867188 -2.28125 0.726562 -2.144531 0.625 -1.96875 C 0.53125 -1.789062 0.484375 -1.585938 0.484375 -1.359375 C 0.484375 -1.140625 0.53125 -0.941406 0.625 -0.765625 C 0.71875 -0.597656 0.84375 -0.460938 1 -0.359375 C 1.164062 -0.265625 1.351562 -0.21875 1.5625 -0.21875 C 1.726562 -0.21875 1.882812 -0.242188 2.03125 -0.296875 C 2.175781 -0.347656 2.300781 -0.414062 2.40625 -0.5 L 2.390625 -0.171875 C 2.148438 -0.0351562 1.859375 0.03125 1.515625 0.03125 Z M 1.515625 0.03125 "/></g></g></g></g><g clip-path="url(#48d5e510e3)"><g fill="#ff3131" fill-opacity="1"><g transform="translate(18.213466, 3.723943)"><g><path d="M 1.875 -0.484375 C 2.0625 -0.273438 2.226562 -0.117188 2.375 -0.015625 L 2.375 0 L 1.828125 0 C 1.796875 -0.0625 1.75 -0.140625 1.6875 -0.234375 C 1.625 -0.335938 1.550781 -0.441406 1.46875 -0.546875 L 0.640625 -1.484375 L 0.640625 -0.796875 C 0.640625 -0.628906 0.644531 -0.484375 0.65625 -0.359375 C 0.664062 -0.242188 0.6875 -0.125 0.71875 0 L 0.265625 0 C 0.296875 -0.125 0.316406 -0.242188 0.328125 -0.359375 C 0.347656 -0.484375 0.359375 -0.628906 0.359375 -0.796875 L 0.359375 -1.96875 C 0.359375 -2.125 0.347656 -2.257812 0.328125 -2.375 C 0.316406 -2.5 0.296875 -2.625 0.265625 -2.75 L 0.71875 -2.75 C 0.6875 -2.625 0.664062 -2.5 0.65625 -2.375 C 0.644531 -2.257812 0.640625 -2.125 0.640625 -1.96875 L 0.640625 -1.53125 L 1.390625 -2.359375 C 1.453125 -2.429688 1.492188 -2.492188 1.515625 -2.546875 C 1.546875 -2.609375 1.566406 -2.675781 1.578125 -2.75 L 2.21875 -2.75 L 2.21875 -2.734375 C 2.113281 -2.671875 2 -2.585938 1.875 -2.484375 C 1.757812 -2.378906 1.648438 -2.269531 1.546875 -2.15625 L 0.984375 -1.515625 Z M 1.875 -0.484375 "/></g></g></g></g><g clip-path="url(#a528bbc902)"><g fill="#ff3131" fill-opacity="1"><g transform="translate(20.498049, 3.723943)"><g><path d="M 0.265625 0 C 0.296875 -0.125 0.316406 -0.242188 0.328125 -0.359375 C 0.347656 -0.484375 0.359375 -0.628906 0.359375 -0.796875 L 0.359375 -1.96875 C 0.359375 -2.125 0.347656 -2.257812 0.328125 -2.375 C 0.316406 -2.5 0.289062 -2.625 0.25 -2.75 C 0.351562 -2.769531 0.460938 -2.78125 0.578125 -2.78125 C 0.960938 -2.78125 1.285156 -2.722656 1.546875 -2.609375 C 1.816406 -2.492188 2.019531 -2.332031 2.15625 -2.125 C 2.289062 -1.914062 2.359375 -1.675781 2.359375 -1.40625 C 2.359375 -1.113281 2.285156 -0.859375 2.140625 -0.640625 C 2.003906 -0.429688 1.8125 -0.269531 1.5625 -0.15625 C 1.3125 -0.0507812 1.03125 0 0.71875 0 Z M 0.671875 -0.203125 C 1.085938 -0.222656 1.421875 -0.328125 1.671875 -0.515625 C 1.921875 -0.710938 2.046875 -0.992188 2.046875 -1.359375 C 2.046875 -1.597656 1.988281 -1.804688 1.875 -1.984375 C 1.757812 -2.160156 1.597656 -2.296875 1.390625 -2.390625 C 1.179688 -2.492188 0.9375 -2.550781 0.65625 -2.5625 C 0.644531 -2.4375 0.640625 -2.273438 0.640625 -2.078125 L 0.640625 -0.734375 C 0.640625 -0.515625 0.648438 -0.335938 0.671875 -0.203125 Z M 0.671875 -0.203125 "/></g></g></g></g><g clip-path="url(#e99d4923c6)"><g fill="#ff3131" fill-opacity="1"><g transform="translate(23.064843, 3.723943)"><g><path d="M 1.5625 -2.78125 C 1.8125 -2.78125 2.039062 -2.722656 2.25 -2.609375 C 2.46875 -2.492188 2.640625 -2.328125 2.765625 -2.109375 C 2.890625 -1.898438 2.953125 -1.65625 2.953125 -1.375 C 2.953125 -1.101562 2.890625 -0.859375 2.765625 -0.640625 C 2.640625 -0.429688 2.46875 -0.265625 2.25 -0.140625 C 2.039062 -0.0234375 1.804688 0.03125 1.546875 0.03125 C 1.265625 0.03125 1.019531 -0.03125 0.8125 -0.15625 C 0.613281 -0.289062 0.457031 -0.46875 0.34375 -0.6875 C 0.226562 -0.90625 0.171875 -1.140625 0.171875 -1.390625 C 0.171875 -1.640625 0.226562 -1.867188 0.34375 -2.078125 C 0.46875 -2.296875 0.632812 -2.46875 0.84375 -2.59375 C 1.0625 -2.71875 1.300781 -2.78125 1.5625 -2.78125 Z M 1.484375 -2.546875 C 1.304688 -2.546875 1.140625 -2.5 0.984375 -2.40625 C 0.835938 -2.3125 0.71875 -2.179688 0.625 -2.015625 C 0.53125 -1.847656 0.484375 -1.65625 0.484375 -1.4375 C 0.484375 -1.21875 0.53125 -1.015625 0.625 -0.828125 C 0.71875 -0.640625 0.847656 -0.488281 1.015625 -0.375 C 1.179688 -0.257812 1.375 -0.203125 1.59375 -0.203125 C 1.789062 -0.203125 1.96875 -0.25 2.125 -0.34375 C 2.28125 -0.445312 2.398438 -0.582031 2.484375 -0.75 C 2.578125 -0.925781 2.625 -1.113281 2.625 -1.3125 C 2.625 -1.53125 2.570312 -1.734375 2.46875 -1.921875 C 2.375 -2.109375 2.238281 -2.257812 2.0625 -2.375 C 1.882812 -2.488281 1.691406 -2.546875 1.484375 -2.546875 Z M 1.484375 -2.546875 "/></g></g></g></g><g clip-path="url(#97310768bb)"><g fill="#ff3131" fill-opacity="1"><g transform="translate(26.216221, 3.723943)"><g><path d="M 1.5625 -2.78125 C 1.8125 -2.78125 2.039062 -2.722656 2.25 -2.609375 C 2.46875 -2.492188 2.640625 -2.328125 2.765625 -2.109375 C 2.890625 -1.898438 2.953125 -1.65625 2.953125 -1.375 C 2.953125 -1.101562 2.890625 -0.859375 2.765625 -0.640625 C 2.640625 -0.429688 2.46875 -0.265625 2.25 -0.140625 C 2.039062 -0.0234375 1.804688 0.03125 1.546875 0.03125 C 1.265625 0.03125 1.019531 -0.03125 0.8125 -0.15625 C 0.613281 -0.289062 0.457031 -0.46875 0.34375 -0.6875 C 0.226562 -0.90625 0.171875 -1.140625 0.171875 -1.390625 C 0.171875 -1.640625 0.226562 -1.867188 0.34375 -2.078125 C 0.46875 -2.296875 0.632812 -2.46875 0.84375 -2.59375 C 1.0625 -2.71875 1.300781 -2.78125 1.5625 -2.78125 Z M 1.484375 -2.546875 C 1.304688 -2.546875 1.140625 -2.5 0.984375 -2.40625 C 0.835938 -2.3125 0.71875 -2.179688 0.625 -2.015625 C 0.53125 -1.847656 0.484375 -1.65625 0.484375 -1.4375 C 0.484375 -1.21875 0.53125 -1.015625 0.625 -0.828125 C 0.71875 -0.640625 0.847656 -0.488281 1.015625 -0.375 C 1.179688 -0.257812 1.375 -0.203125 1.59375 -0.203125 C 1.789062 -0.203125 1.96875 -0.25 2.125 -0.34375 C 2.28125 -0.445312 2.398438 -0.582031 2.484375 -0.75 C 2.578125 -0.925781 2.625 -1.113281 2.625 -1.3125 C 2.625 -1.53125 2.570312 -1.734375 2.46875 -1.921875 C 2.375 -2.109375 2.238281 -2.257812 2.0625 -2.375 C 1.882812 -2.488281 1.691406 -2.546875 1.484375 -2.546875 Z M 1.484375 -2.546875 "/></g></g></g></g><g clip-path="url(#98b58f8d4c)"><g fill="#ff3131" fill-opacity="1"><g transform="translate(29.334003, 3.723943)"><g><path d="M 1.078125 -1.21875 C 1.210938 -1.03125 1.351562 -0.847656 1.5 -0.671875 C 1.644531 -0.492188 1.832031 -0.273438 2.0625 -0.015625 L 2.0625 0 L 1.84375 0 C 1.75 -0.0390625 1.613281 -0.148438 1.4375 -0.328125 C 1.1875 -0.585938 0.921875 -0.898438 0.640625 -1.265625 L 0.640625 -0.796875 C 0.640625 -0.628906 0.644531 -0.484375 0.65625 -0.359375 C 0.664062 -0.242188 0.6875 -0.125 0.71875 0 L 0.265625 0 C 0.296875 -0.125 0.316406 -0.242188 0.328125 -0.359375 C 0.347656 -0.484375 0.359375 -0.628906 0.359375 -0.796875 L 0.359375 -1.96875 C 0.359375 -2.125 0.347656 -2.257812 0.328125 -2.375 C 0.316406 -2.5 0.296875 -2.625 0.265625 -2.75 L 0.703125 -2.75 C 0.921875 -2.75 1.109375 -2.710938 1.265625 -2.640625 C 1.421875 -2.578125 1.535156 -2.488281 1.609375 -2.375 C 1.691406 -2.257812 1.734375 -2.128906 1.734375 -1.984375 C 1.734375 -1.648438 1.515625 -1.394531 1.078125 -1.21875 Z M 0.640625 -1.296875 C 0.898438 -1.347656 1.09375 -1.429688 1.21875 -1.546875 C 1.351562 -1.660156 1.421875 -1.800781 1.421875 -1.96875 C 1.421875 -2.082031 1.382812 -2.179688 1.3125 -2.265625 C 1.25 -2.359375 1.15625 -2.425781 1.03125 -2.46875 C 0.914062 -2.519531 0.785156 -2.546875 0.640625 -2.546875 Z M 0.640625 -1.296875 "/></g></g></g></g><g fill="#ff3131" fill-opacity="1"><g transform="translate(31.349813, 3.723943)"><g/></g></g><g clip-path="url(#b5146572e6)"><g fill="#ff3131" fill-opacity="1"><g transform="translate(32.12926, 3.723943)"><g><path d="M 0.71875 -2.75 C 0.945312 -2.75 1.140625 -2.710938 1.296875 -2.640625 C 1.460938 -2.566406 1.582031 -2.46875 1.65625 -2.34375 C 1.738281 -2.226562 1.78125 -2.09375 1.78125 -1.9375 C 1.78125 -1.769531 1.738281 -1.625 1.65625 -1.5 C 1.570312 -1.375 1.453125 -1.273438 1.296875 -1.203125 C 1.148438 -1.140625 0.976562 -1.109375 0.78125 -1.109375 C 0.726562 -1.109375 0.679688 -1.109375 0.640625 -1.109375 L 0.640625 -0.796875 C 0.640625 -0.628906 0.644531 -0.484375 0.65625 -0.359375 C 0.664062 -0.242188 0.6875 -0.125 0.71875 0 L 0.265625 0 C 0.296875 -0.125 0.316406 -0.242188 0.328125 -0.359375 C 0.347656 -0.484375 0.359375 -0.628906 0.359375 -0.796875 L 0.359375 -1.96875 C 0.359375 -2.125 0.347656 -2.257812 0.328125 -2.375 C 0.316406 -2.5 0.296875 -2.625 0.265625 -2.75 Z M 0.640625 -1.25 C 0.816406 -1.269531 0.96875 -1.3125 1.09375 -1.375 C 1.21875 -1.4375 1.3125 -1.515625 1.375 -1.609375 C 1.4375 -1.703125 1.46875 -1.804688 1.46875 -1.921875 C 1.46875 -2.046875 1.4375 -2.148438 1.375 -2.234375 C 1.3125 -2.328125 1.21875 -2.398438 1.09375 -2.453125 C 0.96875 -2.515625 0.816406 -2.546875 0.640625 -2.546875 C 0.640625 -2.472656 0.640625 -2.359375 0.640625 -2.203125 Z M 0.640625 -1.25 "/></g></g></g></g><g clip-path="url(#3ed2e0832e)"><g fill="#ff3131" fill-opacity="1"><g transform="translate(33.711669, 3.723943)"><g><path d="M 2.4375 -0.640625 C 2.5 -0.503906 2.554688 -0.390625 2.609375 -0.296875 C 2.660156 -0.203125 2.722656 -0.109375 2.796875 -0.015625 L 2.796875 0 L 2.265625 0 C 2.273438 -0.0195312 2.28125 -0.0507812 2.28125 -0.09375 C 2.28125 -0.15625 2.269531 -0.222656 2.25 -0.296875 C 2.226562 -0.367188 2.191406 -0.460938 2.140625 -0.578125 L 1.953125 -1 L 0.796875 -1 L 0.578125 -0.5625 C 0.484375 -0.363281 0.4375 -0.207031 0.4375 -0.09375 C 0.4375 -0.0625 0.4375 -0.03125 0.4375 0 L -0.0625 0 L -0.0625 -0.015625 C 0.0625 -0.179688 0.1875 -0.390625 0.3125 -0.640625 L 1.40625 -2.8125 L 1.421875 -2.8125 Z M 0.90625 -1.265625 L 1.84375 -1.265625 L 1.390625 -2.265625 Z M 0.90625 -1.265625 "/></g></g></g></g><g clip-path="url(#bb865e13e0)"><g fill="#ff3131" fill-opacity="1"><g transform="translate(36.439727, 3.723943)"><g><path d="M 1.078125 -1.21875 C 1.210938 -1.03125 1.351562 -0.847656 1.5 -0.671875 C 1.644531 -0.492188 1.832031 -0.273438 2.0625 -0.015625 L 2.0625 0 L 1.84375 0 C 1.75 -0.0390625 1.613281 -0.148438 1.4375 -0.328125 C 1.1875 -0.585938 0.921875 -0.898438 0.640625 -1.265625 L 0.640625 -0.796875 C 0.640625 -0.628906 0.644531 -0.484375 0.65625 -0.359375 C 0.664062 -0.242188 0.6875 -0.125 0.71875 0 L 0.265625 0 C 0.296875 -0.125 0.316406 -0.242188 0.328125 -0.359375 C 0.347656 -0.484375 0.359375 -0.628906 0.359375 -0.796875 L 0.359375 -1.96875 C 0.359375 -2.125 0.347656 -2.257812 0.328125 -2.375 C 0.316406 -2.5 0.296875 -2.625 0.265625 -2.75 L 0.703125 -2.75 C 0.921875 -2.75 1.109375 -2.710938 1.265625 -2.640625 C 1.421875 -2.578125 1.535156 -2.488281 1.609375 -2.375 C 1.691406 -2.257812 1.734375 -2.128906 1.734375 -1.984375 C 1.734375 -1.648438 1.515625 -1.394531 1.078125 -1.21875 Z M 0.640625 -1.296875 C 0.898438 -1.347656 1.09375 -1.429688 1.21875 -1.546875 C 1.351562 -1.660156 1.421875 -1.800781 1.421875 -1.96875 C 1.421875 -2.082031 1.382812 -2.179688 1.3125 -2.265625 C 1.25 -2.359375 1.15625 -2.425781 1.03125 -2.46875 C 0.914062 -2.519531 0.785156 -2.546875 0.640625 -2.546875 Z M 0.640625 -1.296875 "/></g></g></g></g><g clip-path="url(#3cdee0dbf5)"><g fill="#ff3131" fill-opacity="1"><g transform="translate(38.388342, 3.723943)"><g><path d="M 0.75 0 C 0.78125 -0.113281 0.800781 -0.226562 0.8125 -0.34375 C 0.832031 -0.46875 0.84375 -0.617188 0.84375 -0.796875 L 0.84375 -2.515625 C 0.675781 -2.515625 0.519531 -2.5 0.375 -2.46875 C 0.226562 -2.445312 0.0976562 -2.414062 -0.015625 -2.375 L 0.09375 -2.75 L 2.03125 -2.75 L 1.875 -2.40625 C 1.769531 -2.445312 1.660156 -2.472656 1.546875 -2.484375 C 1.429688 -2.503906 1.289062 -2.515625 1.125 -2.515625 L 1.125 -0.796875 C 1.125 -0.617188 1.128906 -0.46875 1.140625 -0.34375 C 1.148438 -0.226562 1.171875 -0.113281 1.203125 0 Z M 0.75 0 "/></g></g></g></g><g clip-path="url(#6c503cc777)"><g fill="#ff3131" fill-opacity="1"><g transform="translate(40.390712, 3.723943)"><g><path d="M 0.265625 0 C 0.296875 -0.125 0.316406 -0.242188 0.328125 -0.359375 C 0.347656 -0.484375 0.359375 -0.628906 0.359375 -0.796875 L 0.359375 -1.96875 C 0.359375 -2.125 0.347656 -2.257812 0.328125 -2.375 C 0.316406 -2.5 0.296875 -2.625 0.265625 -2.75 L 1.6875 -2.75 L 1.53125 -2.421875 C 1.289062 -2.492188 0.992188 -2.53125 0.640625 -2.53125 L 0.640625 -1.484375 L 1.5625 -1.484375 L 1.390625 -1.1875 C 1.203125 -1.238281 0.953125 -1.269531 0.640625 -1.28125 L 0.640625 -0.21875 C 0.867188 -0.21875 1.070312 -0.226562 1.25 -0.25 C 1.4375 -0.269531 1.617188 -0.304688 1.796875 -0.359375 L 1.796875 -0.34375 L 1.65625 0 Z M 0.265625 0 "/></g></g></g></g><g clip-path="url(#edc573a41a)"><g fill="#ff3131" fill-opacity="1"><g transform="translate(42.198218, 3.723943)"><g><path d="M 1.078125 -1.21875 C 1.210938 -1.03125 1.351562 -0.847656 1.5 -0.671875 C 1.644531 -0.492188 1.832031 -0.273438 2.0625 -0.015625 L 2.0625 0 L 1.84375 0 C 1.75 -0.0390625 1.613281 -0.148438 1.4375 -0.328125 C 1.1875 -0.585938 0.921875 -0.898438 0.640625 -1.265625 L 0.640625 -0.796875 C 0.640625 -0.628906 0.644531 -0.484375 0.65625 -0.359375 C 0.664062 -0.242188 0.6875 -0.125 0.71875 0 L 0.265625 0 C 0.296875 -0.125 0.316406 -0.242188 0.328125 -0.359375 C 0.347656 -0.484375 0.359375 -0.628906 0.359375 -0.796875 L 0.359375 -1.96875 C 0.359375 -2.125 0.347656 -2.257812 0.328125 -2.375 C 0.316406 -2.5 0.296875 -2.625 0.265625 -2.75 L 0.703125 -2.75 C 0.921875 -2.75 1.109375 -2.710938 1.265625 -2.640625 C 1.421875 -2.578125 1.535156 -2.488281 1.609375 -2.375 C 1.691406 -2.257812 1.734375 -2.128906 1.734375 -1.984375 C 1.734375 -1.648438 1.515625 -1.394531 1.078125 -1.21875 Z M 0.640625 -1.296875 C 0.898438 -1.347656 1.09375 -1.429688 1.21875 -1.546875 C 1.351562 -1.660156 1.421875 -1.800781 1.421875 -1.96875 C 1.421875 -2.082031 1.382812 -2.179688 1.3125 -2.265625 C 1.25 -2.359375 1.15625 -2.425781 1.03125 -2.46875 C 0.914062 -2.519531 0.785156 -2.546875 0.640625 -2.546875 Z M 0.640625 -1.296875 "/></g></g></g></g><g clip-path="url(#f15a7867b6)"><g fill="#ff3131" fill-opacity="1"><g transform="translate(44.214027, 3.723943)"><g><path d="M 2.640625 -0.890625 C 2.640625 -0.691406 2.640625 -0.519531 2.640625 -0.375 C 2.648438 -0.238281 2.664062 -0.113281 2.6875 0 L 2.34375 0 C 2.3125 -0.09375 2.234375 -0.210938 2.109375 -0.359375 L 0.640625 -2.140625 L 0.640625 -0.890625 C 0.640625 -0.691406 0.644531 -0.523438 0.65625 -0.390625 C 0.675781 -0.265625 0.703125 -0.132812 0.734375 0 L 0.28125 0 C 0.3125 -0.132812 0.332031 -0.265625 0.34375 -0.390625 C 0.351562 -0.523438 0.359375 -0.691406 0.359375 -0.890625 L 0.359375 -2.421875 C 0.273438 -2.523438 0.175781 -2.628906 0.0625 -2.734375 L 0.0625 -2.75 L 0.5625 -2.75 C 0.601562 -2.675781 0.644531 -2.601562 0.6875 -2.53125 C 0.738281 -2.46875 0.804688 -2.382812 0.890625 -2.28125 L 2.34375 -0.515625 L 2.34375 -1.859375 C 2.34375 -2.054688 2.335938 -2.21875 2.328125 -2.34375 C 2.316406 -2.476562 2.296875 -2.613281 2.265625 -2.75 L 2.71875 -2.75 C 2.6875 -2.613281 2.664062 -2.476562 2.65625 -2.34375 C 2.644531 -2.21875 2.640625 -2.054688 2.640625 -1.859375 Z M 2.640625 -0.890625 "/></g></g></g></g><g clip-path="url(#1b1019b5b4)"><g fill="#ff3131" fill-opacity="1"><g transform="translate(47.200782, 3.723943)"><g><path d="M 0.265625 0 C 0.296875 -0.125 0.316406 -0.242188 0.328125 -0.359375 C 0.347656 -0.484375 0.359375 -0.628906 0.359375 -0.796875 L 0.359375 -1.96875 C 0.359375 -2.125 0.347656 -2.257812 0.328125 -2.375 C 0.316406 -2.5 0.296875 -2.625 0.265625 -2.75 L 1.6875 -2.75 L 1.53125 -2.421875 C 1.289062 -2.492188 0.992188 -2.53125 0.640625 -2.53125 L 0.640625 -1.484375 L 1.5625 -1.484375 L 1.390625 -1.1875 C 1.203125 -1.238281 0.953125 -1.269531 0.640625 -1.28125 L 0.640625 -0.21875 C 0.867188 -0.21875 1.070312 -0.226562 1.25 -0.25 C 1.4375 -0.269531 1.617188 -0.304688 1.796875 -0.359375 L 1.796875 -0.34375 L 1.65625 0 Z M 0.265625 0 "/></g></g></g></g><g clip-path="url(#a81e55c752)"><g fill="#ff3131" fill-opacity="1"><g transform="translate(49.008288, 3.723943)"><g><path d="M 1.078125 -1.21875 C 1.210938 -1.03125 1.351562 -0.847656 1.5 -0.671875 C 1.644531 -0.492188 1.832031 -0.273438 2.0625 -0.015625 L 2.0625 0 L 1.84375 0 C 1.75 -0.0390625 1.613281 -0.148438 1.4375 -0.328125 C 1.1875 -0.585938 0.921875 -0.898438 0.640625 -1.265625 L 0.640625 -0.796875 C 0.640625 -0.628906 0.644531 -0.484375 0.65625 -0.359375 C 0.664062 -0.242188 0.6875 -0.125 0.71875 0 L 0.265625 0 C 0.296875 -0.125 0.316406 -0.242188 0.328125 -0.359375 C 0.347656 -0.484375 0.359375 -0.628906 0.359375 -0.796875 L 0.359375 -1.96875 C 0.359375 -2.125 0.347656 -2.257812 0.328125 -2.375 C 0.316406 -2.5 0.296875 -2.625 0.265625 -2.75 L 0.703125 -2.75 C 0.921875 -2.75 1.109375 -2.710938 1.265625 -2.640625 C 1.421875 -2.578125 1.535156 -2.488281 1.609375 -2.375 C 1.691406 -2.257812 1.734375 -2.128906 1.734375 -1.984375 C 1.734375 -1.648438 1.515625 -1.394531 1.078125 -1.21875 Z M 0.640625 -1.296875 C 0.898438 -1.347656 1.09375 -1.429688 1.21875 -1.546875 C 1.351562 -1.660156 1.421875 -1.800781 1.421875 -1.96875 C 1.421875 -2.082031 1.382812 -2.179688 1.3125 -2.265625 C 1.25 -2.359375 1.15625 -2.425781 1.03125 -2.46875 C 0.914062 -2.519531 0.785156 -2.546875 0.640625 -2.546875 Z M 0.640625 -1.296875 "/></g></g></g></g></g></g></svg>